{
    "asset" : {
        "generator" : "Khronos glTF Blender I/O v1.8.19",
        "version" : "2.0"
    },
    "scene" : 0,
    "scenes" : [
        {
            "name" : "Scene",
            "nodes" : [
                0,
                2
            ]
        }
    ],
    "nodes" : [
        {
            "mesh" : 0,
            "name" : "Hydrogene.001",
            "rotation" : [
                0,
                0.00261792098172009,
                0,
                0.9999966621398926
            ],
            "scale" : [
                0.9674838185310364,
                0.9674838185310364,
                0.9674838185310364
            ],
            "translation" : [
                0,
                0.019100848585367203,
                0
            ]
        },
        {
            "mesh" : 1,
            "name" : "electron.001",
            "scale" : [
                0.2846059799194336,
                0.2846059799194336,
                0.2846059799194336
            ],
            "translation" : [
                0.09832875430583954,
                -0.015653422102332115,
                -3.8758692741394043
            ]
        },
        {
            "children" : [
                1
            ],
            "name" : "Empty",
            "scale" : [
                0.8242776989936829,
                0.8242776989936829,
                0.8242776989936829
            ],
            "translation" : [
                0,
                0.04089914634823799,
                0
            ]
        }
    ],
    "animations" : [
        {
            "channels" : [
                {
                    "sampler" : 0,
                    "target" : {
                        "node" : 0,
                        "path" : "rotation"
                    }
                }
            ],
            "name" : "Hydrogene.001Action",
            "samplers" : [
                {
                    "input" : 5,
                    "interpolation" : "LINEAR",
                    "output" : 6
                }
            ]
        },
        {
            "channels" : [
                {
                    "sampler" : 0,
                    "target" : {
                        "node" : 2,
                        "path" : "rotation"
                    }
                }
            ],
            "name" : "EmptyAction",
            "samplers" : [
                {
                    "input" : 7,
                    "interpolation" : "LINEAR",
                    "output" : 8
                }
            ]
        },
        {
            "channels" : [
                {
                    "sampler" : 0,
                    "target" : {
                        "node" : 1,
                        "path" : "rotation"
                    }
                }
            ],
            "name" : "electron.001Action",
            "samplers" : [
                {
                    "input" : 7,
                    "interpolation" : "LINEAR",
                    "output" : 9
                }
            ]
        }
    ],
    "materials" : [
        {
            "doubleSided" : true,
            "emissiveFactor" : [
                0.025097018107771873,
                0.07667112350463867,
                1
            ],
            "name" : "Material.001",
            "pbrMetallicRoughness" : {
                "baseColorFactor" : [
                    0.020117158070206642,
                    0.19515039026737213,
                    0.8000000715255737,
                    1
                ]
            }
        },
        {
            "doubleSided" : true,
            "emissiveFactor" : [
                1,
                1,
                1
            ],
            "name" : "Material.003",
            "pbrMetallicRoughness" : {
                "baseColorFactor" : [
                    0.8000000715255737,
                    0.7897713780403137,
                    0.7595447897911072,
                    1
                ]
            }
        }
    ],
    "meshes" : [
        {
            "name" : "Mesh.001",
            "primitives" : [
                {
                    "attributes" : {
                        "POSITION" : 0,
                        "NORMAL" : 1
                    },
                    "indices" : 2,
                    "material" : 0
                }
            ]
        },
        {
            "name" : "Mesh.002",
            "primitives" : [
                {
                    "attributes" : {
                        "POSITION" : 3,
                        "NORMAL" : 4
                    },
                    "indices" : 2,
                    "material" : 1
                }
            ]
        }
    ],
    "accessors" : [
        {
            "bufferView" : 0,
            "componentType" : 5126,
            "count" : 144,
            "max" : [
                1.1151094436645508,
                1.1151094436645508,
                1.1151094436645508
            ],
            "min" : [
                -1.1151094436645508,
                -1.1151094436645508,
                -1.1151094436645508
            ],
            "type" : "VEC3"
        },
        {
            "bufferView" : 1,
            "componentType" : 5126,
            "count" : 144,
            "type" : "VEC3"
        },
        {
            "bufferView" : 2,
            "componentType" : 5123,
            "count" : 852,
            "type" : "SCALAR"
        },
        {
            "bufferView" : 3,
            "componentType" : 5126,
            "count" : 144,
            "max" : [
                1.1151094436645508,
                1.1151094436645508,
                1.1151094436645508
            ],
            "min" : [
                -1.1151094436645508,
                -1.1151094436645508,
                -1.1151094436645508
            ],
            "type" : "VEC3"
        },
        {
            "bufferView" : 4,
            "componentType" : 5126,
            "count" : 144,
            "type" : "VEC3"
        },
        {
            "bufferView" : 5,
            "componentType" : 5126,
            "count" : 241,
            "max" : [
                10
            ],
            "min" : [
                0
            ],
            "type" : "SCALAR"
        },
        {
            "bufferView" : 6,
            "componentType" : 5126,
            "count" : 241,
            "type" : "VEC4"
        },
        {
            "bufferView" : 7,
            "componentType" : 5126,
            "count" : 240,
            "max" : [
                10
            ],
            "min" : [
                0.041666666666666664
            ],
            "type" : "SCALAR"
        },
        {
            "bufferView" : 8,
            "componentType" : 5126,
            "count" : 240,
            "type" : "VEC4"
        },
        {
            "bufferView" : 9,
            "componentType" : 5126,
            "count" : 240,
            "type" : "VEC4"
        }
    ],
    "bufferViews" : [
        {
            "buffer" : 0,
            "byteLength" : 1728,
            "byteOffset" : 0
        },
        {
            "buffer" : 0,
            "byteLength" : 1728,
            "byteOffset" : 1728
        },
        {
            "buffer" : 0,
            "byteLength" : 1704,
            "byteOffset" : 3456
        },
        {
            "buffer" : 0,
            "byteLength" : 1728,
            "byteOffset" : 5160
        },
        {
            "buffer" : 0,
            "byteLength" : 1728,
            "byteOffset" : 6888
        },
        {
            "buffer" : 0,
            "byteLength" : 964,
            "byteOffset" : 8616
        },
        {
            "buffer" : 0,
            "byteLength" : 3856,
            "byteOffset" : 9580
        },
        {
            "buffer" : 0,
            "byteLength" : 960,
            "byteOffset" : 13436
        },
        {
            "buffer" : 0,
            "byteLength" : 3840,
            "byteOffset" : 14396
        },
        {
            "buffer" : 0,
            "byteLength" : 3840,
            "byteOffset" : 18236
        }
    ],
    "buffers" : [
        {
            "byteLength" : 22076,
            "uri" : "data:application/octet-stream;base64,"
        }
    ]
}
