{
    "asset" : {
        "generator" : "Khronos glTF Blender I/O v1.8.19",
        "version" : "2.0"
    },
    "scene" : 0,
    "scenes" : [
        {
            "name" : "Scene",
            "nodes" : [
                0,
                1,
                2,
                9
            ]
        }
    ],
    "nodes" : [
        {
            "mesh" : 0,
            "name" : "Sphere.003",
            "scale" : [
                -0.2559197247028351,
                -0.2559197247028351,
                -0.2559197247028351
            ],
            "translation" : [
                0,
                0,
                -0.025088611990213394
            ]
        },
        {
            "mesh" : 1,
            "name" : "Sphere.007",
            "scale" : [
                -0.6499119997024536,
                -0.6499119997024536,
                -0.6499119997024536
            ]
        },
        {
            "mesh" : 2,
            "name" : "Sphere.008",
            "scale" : [
                -0.2828349471092224,
                -0.2828349471092224,
                -0.2828349471092224
            ],
            "translation" : [
                0,
                0,
                -0.025088611990213394
            ]
        },
        {
            "mesh" : 3,
            "name" : "Sphere",
            "scale" : [
                -0.08037160336971283,
                -0.08037160336971283,
                -0.08037160336971283
            ],
            "translation" : [
                0.16041848063468933,
                0,
                1.2583504915237427
            ]
        },
        {
            "mesh" : 4,
            "name" : "Sphere.001",
            "scale" : [
                0.09324523061513901,
                0.09324523061513901,
                0.09324523061513901
            ],
            "translation" : [
                -0.8952381610870361,
                0,
                0.7703154683113098
            ]
        },
        {
            "mesh" : 5,
            "name" : "Sphere.002",
            "scale" : [
                -0.08037160336971283,
                -0.08037160336971283,
                -0.08037160336971283
            ],
            "translation" : [
                -0.2995811998844147,
                0,
                -1.1381967067718506
            ]
        },
        {
            "mesh" : 6,
            "name" : "Sphere.004",
            "scale" : [
                -0.08037160336971283,
                -0.08037160336971283,
                -0.08037160336971283
            ],
            "translation" : [
                1.1462430953979492,
                0,
                0.3910740315914154
            ]
        },
        {
            "mesh" : 7,
            "name" : "Sphere.005",
            "rotation" : [
                -0.39815089106559753,
                0.6605699062347412,
                0.2174404114484787,
                0.5981997847557068
            ],
            "scale" : [
                -0.08037160336971283,
                -0.08037159591913223,
                -0.08037159591913223
            ],
            "translation" : [
                -1.144105076789856,
                0,
                -0.3653417229652405
            ]
        },
        {
            "mesh" : 8,
            "name" : "Sphere.006",
            "scale" : [
                -0.09041805565357208,
                -0.09041805565357208,
                -0.09041805565357208
            ],
            "translation" : [
                0.8828309774398804,
                0,
                -0.8779393434524536
            ]
        },
        {
            "children" : [
                3,
                4,
                5,
                6,
                7,
                8
            ],
            "name" : "Empty",
            "scale" : [
                -2.070383071899414,
                -2.070383071899414,
                -2.070383071899414
            ]
        }
    ],
    "animations" : [
        {
            "channels" : [
                {
                    "sampler" : 0,
                    "target" : {
                        "node" : 9,
                        "path" : "rotation"
                    }
                }
            ],
            "name" : "EmptyAction",
            "samplers" : [
                {
                    "input" : 30,
                    "interpolation" : "LINEAR",
                    "output" : 31
                }
            ]
        }
    ],
    "materials" : [
        {
            "doubleSided" : true,
            "name" : "Material.008",
            "pbrMetallicRoughness" : {
                "baseColorFactor" : [
                    0.8000000715255737,
                    0.016405610367655754,
                    0.021607771515846252,
                    1
                ],
                "metallicFactor" : 0,
                "roughnessFactor" : 0.5
            }
        },
        {
            "doubleSided" : true,
            "emissiveFactor" : [
                1,
                0,
                0.009794064797461033
            ],
            "name" : "Material.007",
            "pbrMetallicRoughness" : {
                "baseColorFactor" : [
                    0.6038274168968201,
                    0.008515768684446812,
                    0.02192685939371586,
                    1
                ]
            }
        },
        {
            "doubleSided" : true,
            "emissiveFactor" : [
                1,
                1,
                1
            ],
            "name" : "Material.002",
            "pbrMetallicRoughness" : {}
        },
        {
            "doubleSided" : true,
            "emissiveFactor" : [
                1,
                1,
                1
            ],
            "name" : "Material.006",
            "pbrMetallicRoughness" : {}
        },
        {
            "doubleSided" : true,
            "emissiveFactor" : [
                1,
                1,
                1
            ],
            "name" : "Material.005",
            "pbrMetallicRoughness" : {
                "baseColorFactor" : [
                    0.800000011920929,
                    0.800000011920929,
                    0.800000011920929,
                    1
                ]
            }
        },
        {
            "doubleSided" : true,
            "emissiveFactor" : [
                1,
                1,
                1
            ],
            "name" : "Material.003",
            "pbrMetallicRoughness" : {
                "baseColorFactor" : [
                    0.800000011920929,
                    0.800000011920929,
                    0.800000011920929,
                    1
                ]
            }
        },
        {
            "doubleSided" : true,
            "emissiveFactor" : [
                1,
                1,
                1
            ],
            "name" : "Material.001",
            "pbrMetallicRoughness" : {
                "baseColorFactor" : [
                    0.800000011920929,
                    0.800000011920929,
                    0.800000011920929,
                    1
                ]
            }
        },
        {
            "doubleSided" : true,
            "emissiveFactor" : [
                1,
                1,
                1
            ],
            "name" : "Material.004",
            "pbrMetallicRoughness" : {
                "baseColorFactor" : [
                    0.800000011920929,
                    0.800000011920929,
                    0.800000011920929,
                    1
                ]
            }
        }
    ],
    "meshes" : [
        {
            "name" : "Sphere.003",
            "primitives" : [
                {
                    "attributes" : {
                        "POSITION" : 0,
                        "NORMAL" : 1,
                        "TEXCOORD_0" : 2
                    },
                    "indices" : 3,
                    "material" : 0
                }
            ]
        },
        {
            "name" : "Sphere.007",
            "primitives" : [
                {
                    "attributes" : {
                        "POSITION" : 4,
                        "NORMAL" : 5,
                        "TEXCOORD_0" : 6
                    },
                    "indices" : 3,
                    "material" : 1
                }
            ]
        },
        {
            "name" : "Sphere.008",
            "primitives" : [
                {
                    "attributes" : {
                        "POSITION" : 7,
                        "NORMAL" : 8,
                        "TEXCOORD_0" : 9
                    },
                    "indices" : 10
                }
            ]
        },
        {
            "name" : "Sphere",
            "primitives" : [
                {
                    "attributes" : {
                        "POSITION" : 11,
                        "NORMAL" : 12,
                        "TEXCOORD_0" : 13
                    },
                    "indices" : 14,
                    "material" : 2
                }
            ]
        },
        {
            "name" : "Sphere.001",
            "primitives" : [
                {
                    "attributes" : {
                        "POSITION" : 15,
                        "NORMAL" : 16,
                        "TEXCOORD_0" : 17
                    },
                    "indices" : 14,
                    "material" : 3
                }
            ]
        },
        {
            "name" : "Sphere.002",
            "primitives" : [
                {
                    "attributes" : {
                        "POSITION" : 18,
                        "NORMAL" : 19,
                        "TEXCOORD_0" : 20
                    },
                    "indices" : 14,
                    "material" : 4
                }
            ]
        },
        {
            "name" : "Sphere.004",
            "primitives" : [
                {
                    "attributes" : {
                        "POSITION" : 21,
                        "NORMAL" : 22,
                        "TEXCOORD_0" : 23
                    },
                    "indices" : 14,
                    "material" : 5
                }
            ]
        },
        {
            "name" : "Sphere.005",
            "primitives" : [
                {
                    "attributes" : {
                        "POSITION" : 24,
                        "NORMAL" : 25,
                        "TEXCOORD_0" : 26
                    },
                    "indices" : 14,
                    "material" : 6
                }
            ]
        },
        {
            "name" : "Sphere.006",
            "primitives" : [
                {
                    "attributes" : {
                        "POSITION" : 27,
                        "NORMAL" : 28,
                        "TEXCOORD_0" : 29
                    },
                    "indices" : 14,
                    "material" : 7
                }
            ]
        }
    ],
    "accessors" : [
        {
            "bufferView" : 0,
            "componentType" : 5126,
            "count" : 559,
            "max" : [
                0.9999997019767761,
                1,
                0.9999994039535522
            ],
            "min" : [
                -0.9999990463256836,
                -1,
                -0.9999987483024597
            ],
            "type" : "VEC3"
        },
        {
            "bufferView" : 1,
            "componentType" : 5126,
            "count" : 559,
            "type" : "VEC3"
        },
        {
            "bufferView" : 2,
            "componentType" : 5126,
            "count" : 559,
            "type" : "VEC2"
        },
        {
            "bufferView" : 3,
            "componentType" : 5123,
            "count" : 2880,
            "type" : "SCALAR"
        },
        {
            "bufferView" : 4,
            "componentType" : 5126,
            "count" : 559,
            "max" : [
                0.9464981555938721,
                0.9474528431892395,
                0.9474523067474365
            ],
            "min" : [
                -0.9484063386917114,
                -0.9474528431892395,
                -0.947451651096344
            ],
            "type" : "VEC3"
        },
        {
            "bufferView" : 5,
            "componentType" : 5126,
            "count" : 559,
            "type" : "VEC3"
        },
        {
            "bufferView" : 6,
            "componentType" : 5126,
            "count" : 559,
            "type" : "VEC2"
        },
        {
            "bufferView" : 7,
            "componentType" : 5126,
            "count" : 2866,
            "max" : [
                0.9999997019767761,
                1,
                0.9999994039535522
            ],
            "min" : [
                -0.9999990463256836,
                -1,
                -0.9999987483024597
            ],
            "type" : "VEC3"
        },
        {
            "bufferView" : 8,
            "componentType" : 5126,
            "count" : 2866,
            "type" : "VEC3"
        },
        {
            "bufferView" : 9,
            "componentType" : 5126,
            "count" : 2866,
            "type" : "VEC2"
        },
        {
            "bufferView" : 10,
            "componentType" : 5123,
            "count" : 2880,
            "type" : "SCALAR"
        },
        {
            "bufferView" : 11,
            "componentType" : 5126,
            "count" : 2077,
            "max" : [
                0.9999997019767761,
                1,
                0.9999994039535522
            ],
            "min" : [
                -0.9999990463256836,
                -1,
                -0.9999987483024597
            ],
            "type" : "VEC3"
        },
        {
            "bufferView" : 12,
            "componentType" : 5126,
            "count" : 2077,
            "type" : "VEC3"
        },
        {
            "bufferView" : 13,
            "componentType" : 5126,
            "count" : 2077,
            "type" : "VEC2"
        },
        {
            "bufferView" : 14,
            "componentType" : 5123,
            "count" : 11520,
            "type" : "SCALAR"
        },
        {
            "bufferView" : 15,
            "componentType" : 5126,
            "count" : 2077,
            "max" : [
                0.9999997019767761,
                1,
                0.9999994039535522
            ],
            "min" : [
                -0.9999990463256836,
                -1,
                -0.9999987483024597
            ],
            "type" : "VEC3"
        },
        {
            "bufferView" : 16,
            "componentType" : 5126,
            "count" : 2077,
            "type" : "VEC3"
        },
        {
            "bufferView" : 17,
            "componentType" : 5126,
            "count" : 2077,
            "type" : "VEC2"
        },
        {
            "bufferView" : 18,
            "componentType" : 5126,
            "count" : 2077,
            "max" : [
                0.9999997019767761,
                1,
                0.9999994039535522
            ],
            "min" : [
                -0.9999990463256836,
                -1,
                -0.9999987483024597
            ],
            "type" : "VEC3"
        },
        {
            "bufferView" : 19,
            "componentType" : 5126,
            "count" : 2077,
            "type" : "VEC3"
        },
        {
            "bufferView" : 20,
            "componentType" : 5126,
            "count" : 2077,
            "type" : "VEC2"
        },
        {
            "bufferView" : 21,
            "componentType" : 5126,
            "count" : 2077,
            "max" : [
                0.9999997019767761,
                1,
                0.9999994039535522
            ],
            "min" : [
                -0.9999990463256836,
                -1,
                -0.9999987483024597
            ],
            "type" : "VEC3"
        },
        {
            "bufferView" : 22,
            "componentType" : 5126,
            "count" : 2077,
            "type" : "VEC3"
        },
        {
            "bufferView" : 23,
            "componentType" : 5126,
            "count" : 2077,
            "type" : "VEC2"
        },
        {
            "bufferView" : 24,
            "componentType" : 5126,
            "count" : 2077,
            "max" : [
                0.9999997019767761,
                1,
                0.9999994039535522
            ],
            "min" : [
                -0.9999990463256836,
                -1,
                -0.9999987483024597
            ],
            "type" : "VEC3"
        },
        {
            "bufferView" : 25,
            "componentType" : 5126,
            "count" : 2077,
            "type" : "VEC3"
        },
        {
            "bufferView" : 26,
            "componentType" : 5126,
            "count" : 2077,
            "type" : "VEC2"
        },
        {
            "bufferView" : 27,
            "componentType" : 5126,
            "count" : 2077,
            "max" : [
                0.9999997019767761,
                1,
                0.9999994039535522
            ],
            "min" : [
                -0.9999990463256836,
                -1,
                -0.9999987483024597
            ],
            "type" : "VEC3"
        },
        {
            "bufferView" : 28,
            "componentType" : 5126,
            "count" : 2077,
            "type" : "VEC3"
        },
        {
            "bufferView" : 29,
            "componentType" : 5126,
            "count" : 2077,
            "type" : "VEC2"
        },
        {
            "bufferView" : 30,
            "componentType" : 5126,
            "count" : 240,
            "max" : [
                10
            ],
            "min" : [
                0.041666666666666664
            ],
            "type" : "SCALAR"
        },
        {
            "bufferView" : 31,
            "componentType" : 5126,
            "count" : 240,
            "type" : "VEC4"
        }
    ],
    "bufferViews" : [
        {
            "buffer" : 0,
            "byteLength" : 6708,
            "byteOffset" : 0
        },
        {
            "buffer" : 0,
            "byteLength" : 6708,
            "byteOffset" : 6708
        },
        {
            "buffer" : 0,
            "byteLength" : 4472,
            "byteOffset" : 13416
        },
        {
            "buffer" : 0,
            "byteLength" : 5760,
            "byteOffset" : 17888
        },
        {
            "buffer" : 0,
            "byteLength" : 6708,
            "byteOffset" : 23648
        },
        {
            "buffer" : 0,
            "byteLength" : 6708,
            "byteOffset" : 30356
        },
        {
            "buffer" : 0,
            "byteLength" : 4472,
            "byteOffset" : 37064
        },
        {
            "buffer" : 0,
            "byteLength" : 34392,
            "byteOffset" : 41536
        },
        {
            "buffer" : 0,
            "byteLength" : 34392,
            "byteOffset" : 75928
        },
        {
            "buffer" : 0,
            "byteLength" : 22928,
            "byteOffset" : 110320
        },
        {
            "buffer" : 0,
            "byteLength" : 5760,
            "byteOffset" : 133248
        },
        {
            "buffer" : 0,
            "byteLength" : 24924,
            "byteOffset" : 139008
        },
        {
            "buffer" : 0,
            "byteLength" : 24924,
            "byteOffset" : 163932
        },
        {
            "buffer" : 0,
            "byteLength" : 16616,
            "byteOffset" : 188856
        },
        {
            "buffer" : 0,
            "byteLength" : 23040,
            "byteOffset" : 205472
        },
        {
            "buffer" : 0,
            "byteLength" : 24924,
            "byteOffset" : 228512
        },
        {
            "buffer" : 0,
            "byteLength" : 24924,
            "byteOffset" : 253436
        },
        {
            "buffer" : 0,
            "byteLength" : 16616,
            "byteOffset" : 278360
        },
        {
            "buffer" : 0,
            "byteLength" : 24924,
            "byteOffset" : 294976
        },
        {
            "buffer" : 0,
            "byteLength" : 24924,
            "byteOffset" : 319900
        },
        {
            "buffer" : 0,
            "byteLength" : 16616,
            "byteOffset" : 344824
        },
        {
            "buffer" : 0,
            "byteLength" : 24924,
            "byteOffset" : 361440
        },
        {
            "buffer" : 0,
            "byteLength" : 24924,
            "byteOffset" : 386364
        },
        {
            "buffer" : 0,
            "byteLength" : 16616,
            "byteOffset" : 411288
        },
        {
            "buffer" : 0,
            "byteLength" : 24924,
            "byteOffset" : 427904
        },
        {
            "buffer" : 0,
            "byteLength" : 24924,
            "byteOffset" : 452828
        },
        {
            "buffer" : 0,
            "byteLength" : 16616,
            "byteOffset" : 477752
        },
        {
            "buffer" : 0,
            "byteLength" : 24924,
            "byteOffset" : 494368
        },
        {
            "buffer" : 0,
            "byteLength" : 24924,
            "byteOffset" : 519292
        },
        {
            "buffer" : 0,
            "byteLength" : 16616,
            "byteOffset" : 544216
        },
        {
            "buffer" : 0,
            "byteLength" : 960,
            "byteOffset" : 560832
        },
        {
            "buffer" : 0,
            "byteLength" : 3840,
            "byteOffset" : 561792
        }
    ],
    "buffers" : [
        {
            "byteLength" : 565632,
            "uri" : "data:application/octet-stream;base64,"
        }
    ]
}
